<?xml version="1.0" encoding="UTF-8"?>
<!DOCTYPE svg PUBLIC "-//W3C//DTD SVG 1.1//EN" "http://www.w3.org/Graphics/SVG/1.1/DTD/svg11.dtd">
<!-- Creator: CorelDRAW -->
<svg xmlns="http://www.w3.org/2000/svg" xml:space="preserve" width="6.82666in" height="6.82666in" style="shape-rendering:geometricPrecision; text-rendering:geometricPrecision; image-rendering:optimizeQuality; fill-rule:evenodd; clip-rule:evenodd"
viewBox="0 0 6.82666 6.82666"
 xmlns:xlink="http://www.w3.org/1999/xlink"
 version="1.1">
 <defs>
  <style type="text/css">
   <![CDATA[
    .fil19 {fill:none}
    .fil8 {fill:#1E1D1D}
    .fil7 {fill:#262525}
    .fil4 {fill:#2E2D2C}
    .fil6 {fill:#353434}
    .fil13 {fill:#39B54A}
    .fil5 {fill:#3A3A3A}
    .fil3 {fill:#424143}
    .fil1 {fill:#595A5C}
    .fil10 {fill:#92AEB7}
    .fil16 {fill:#939598}
    .fil15 {fill:#9D2221}
    .fil14 {fill:#B22725}
    .fil9 {fill:#BCC8CE}
    .fil11 {fill:#BE1E2D}
    .fil2 {fill:#D3DADE}
    .fil0 {fill:#DDE2E4}
    .fil17 {fill:#F2F2F2}
    .fil18 {fill:#FDD838}
    .fil12 {fill:#FFDE17}
   ]]>
  </style>
 </defs>
 <g id="Layer_x0020_1">
  <metadata id="CorelCorpID_0Corel-Layer"/>
  <g id="_625046688">
   <g id="Guides">
   </g>
   <g id="Layer_2">
   </g>
   <g id="Layer_3">
   </g>
   <g id="Layer_4">
   </g>
   <g id="Layer_5">
   </g>
   <g id="Layer_6">
   </g>
   <g id="Layer_7">
   </g>
   <g id="Layer_8">
   </g>
   <g id="Layer_9">
   </g>
   <g id="Layer_10">
   </g>
   <g id="Layer_11">
   </g>
   <g id="Layer_12">
   </g>
   <g id="Layer_13">
   </g>
   <g id="Layer_14">
   </g>
   <g id="Layer_15">
   </g>
   <g id="Layer_16">
   </g>
   <g id="Layer_17">
   </g>
   <g id="Layer_18">
   </g>
   <g id="Layer_19">
   </g>
   <g id="Layer_20">
   </g>
   <g id="Layer_21">
   </g>
   <g id="Layer_22">
   </g>
   <g id="Layer_23">
   </g>
   <g id="Layer_24">
    <g>
     <g>
      <g>
       <g>
        <g>
         <rect id="_625050384" class="fil0" x="1.39863" y="1.9401" width="4.0294" height="2.60417"/>
        </g>
        <g>
         <path id="_625050984" class="fil1" d="M5.49453 4.61076l-4.16239 0 0 -2.73717 4.16236 0 0 2.73717 3.14961e-005 0zm-4.02939 -0.133l3.89643 0 0 -2.47117 -3.89643 0 0 2.47117z"/>
        </g>
       </g>
       <g>
        <rect id="_625050360" class="fil2" x="3.41333" y="2.0066" width="1.95496" height="2.4712"/>
       </g>
       <g>
        <g>
         <polygon id="_625049736" class="fil3" points="5.49453,4.61076 3.41333,4.61076 3.41333,4.47776 5.36153,4.47776 5.36153,2.0066 3.41333,2.0066 3.41333,1.8736 5.49453,1.8736 "/>
        </g>
       </g>
       <g>
        <path id="_625050216" class="fil3" d="M5.71893 4.95306l-4.6112 0c-0.0956654,0 -0.173201,-0.0775315 -0.173201,-0.173201l0 -0.169098 4.9576 0 0 0.169098c0,0.0956339 -0.0775354,0.173201 -0.173201,0.173201z"/>
       </g>
       <g>
        <path id="_625050000" class="fil4" d="M5.71933 4.95306l-2.306 0 0 -0.342299 2.4788 0 0 0.1695c0,0.0954331 -0.0773661,0.172799 -0.172799,0.172799z"/>
       </g>
       <g>
        <rect id="_625049760" class="fil5" x="0.934535" y="4.61076" width="4.95759" height="0.116902"/>
       </g>
       <g>
        <rect id="_625049472" class="fil6" x="3.41333" y="4.61076" width="2.4788" height="0.116902"/>
       </g>
       <g>
        <rect id="_625049040" class="fil7" x="2.98513" y="4.61076" width="0.856398" height="0.116902"/>
       </g>
       <g>
        <rect id="_625048992" class="fil8" x="3.41333" y="4.61076" width="0.428201" height="0.116902"/>
       </g>
      </g>
      <g>
       <g>
        <rect id="_625048824" class="fil9" x="1.59767" y="2.3871" width="3.6341" height="1.95976"/>
       </g>
       <g>
        <g>
         <rect id="_625048320" class="fil10" x="1.59767" y="2.14267" width="3.6341" height="0.244433"/>
        </g>
        <g>
         <g>
          <path id="_625048392" class="fil11" d="M1.81143 2.30326l-0.0752992 0c-0.0149685,0 -0.0270984,-0.0121339 -0.0270984,-0.0270984l0 -0.0225c0,-0.0149685 0.0121339,-0.0270984 0.0270984,-0.0270984l0.0752992 -3.93701e-006c0.0149685,0 0.0270984,0.0121339 0.0270984,0.0270984l0 0.0225c0,0.014937 -0.0121339,0.0271024 -0.0270984,0.0271024z"/>
         </g>
         <g>
          <path id="_625048128" class="fil12" d="M2.0153 2.30326l-0.0752992 0c-0.0149685,0 -0.0270984,-0.0121339 -0.0270984,-0.0270984l0 -0.0225c0,-0.0149685 0.0121339,-0.0270984 0.0270984,-0.0270984l0.0752992 -3.93701e-006c0.0149685,0 0.0270984,0.0121339 0.0270984,0.0270984l0 0.0225c3.54331e-005,0.014937 -0.0121339,0.0271024 -0.0270984,0.0271024z"/>
         </g>
         <g>
          <path id="_625048032" class="fil13" d="M2.2192 2.30326l-0.0752992 0c-0.0149685,0 -0.0270984,-0.0121339 -0.0270984,-0.0270984l0 -0.0225c0,-0.0149685 0.0121339,-0.0270984 0.0270984,-0.0270984l0.0752992 -3.93701e-006c0.0149685,0 0.0270984,0.0121339 0.0270984,0.0270984l0 0.0225c3.93701e-006,0.014937 -0.0121299,0.0271024 -0.0270984,0.0271024z"/>
         </g>
        </g>
       </g>
      </g>
     </g>
     <g>
      <polygon id="_625048104" class="fil14" points="4.00243,4.09356 2.82423,4.09356 2.95267,2.96796 3.874,2.96796 "/>
     </g>
     <g>
      <polygon id="_625048584" class="fil15" points="4.00243,4.09356 3.41333,4.09356 3.41333,2.96796 3.874,2.96796 "/>
     </g>
     <g>
      <ellipse id="_625047432" class="fil16" cx="3.1674" cy="3.034" rx="0.0365315" ry="0.0328661"/>
     </g>
     <g>
      <ellipse id="_625047648" class="fil17" cx="3.1674" cy="3.034" rx="0.0298976" ry="0.0268976"/>
     </g>
     <g>
      <ellipse id="_625047504" class="fil16" cx="3.66076" cy="3.034" rx="0.0365315" ry="0.0328661"/>
     </g>
     <g>
      <ellipse id="_625047984" class="fil17" cx="3.66076" cy="3.034" rx="0.0298976" ry="0.0268976"/>
     </g>
     <g>
      <g>
       <path id="_625047840" class="fil18" d="M3.65993 3.0443c-0.00943307,0 -0.0170984,-0.00766535 -0.0170984,-0.0170984 0,-0.100134 -0.0247008,-0.194031 -0.0695315,-0.264402 -0.0433346,-0.0679685 -0.100134,-0.105433 -0.159969,-0.105433 -0.0598346,0 -0.116634,0.0374331 -0.159969,0.105433 -0.0448346,0.0703661 -0.0695315,0.164268 -0.0695315,0.264402 0,0.00943307 -0.00766535,0.0170984 -0.0170984,0.0170984 -0.00943307,0 -0.0170984,-0.00766535 -0.0170984,-0.0170984 0,-0.106567 0.0265984,-0.207 0.0749016,-0.282768 0.0498346,-0.0781654 0.116866,-0.121232 0.188768,-0.121232 0.0719016,0 0.138969,0.0430669 0.188768,0.121232 0.0482992,0.0757992 0.0749016,0.176201 0.0749016,0.282768 2.3622e-005,0.00946457 -0.00761024,0.0170984 -0.0170433,0.0170984z"/>
      </g>
     </g>
    </g>
   </g>
   <g id="Layer_25">
   </g>
   <g id="Layer_26">
   </g>
  </g>
 </g>
 <rect class="fil19" width="6.82666" height="6.82666"/>
</svg>
